<?xml version="1.0" encoding="utf-8"?>
<!-- Generator: Adobe Illustrator 16.0.0, SVG Export Plug-In . SVG Version: 6.00 Build 0)  -->
<!DOCTYPE svg PUBLIC "-//W3C//DTD SVG 1.1//EN" "http://www.w3.org/Graphics/SVG/1.1/DTD/svg11.dtd">
<svg version="1.1" xmlns="http://www.w3.org/2000/svg" xmlns:xlink="http://www.w3.org/1999/xlink" x="0px" y="0px" width="1000px"
	 height="1000px" viewBox="0 0 1000 1000" enable-background="new 0 0 1000 1000" xml:space="preserve">
<g id="Layer_1">
	<circle fill="#FFF200" cx="489.862" cy="386.862" r="153.448"/>
	<ellipse fill="#FFF200" cx="489.863" cy="460.424" rx="180.46" ry="90.229"/>
	<path fill="#FFF200" d="M318.885,431.484c0,0-12.259,23.55-15.885,37.182c-8.333,31.333-9.848,68.665-8.333,87
		c1.717,20.776,20.704,78.333,65.704,33.333s39.862-46.253,49.862-47.586s27.101,44.256,45.434,60.589s38.763,13.582,49.256,3.239
		c14.411-14.204,32.215-57.179,41.919-59.18c11.685-2.409,24.861,1.271,33.195,22.271S617,617.001,639,597.668
		s37.359-65.653,37.359-98.335c0-53.666-16.321-69-16.321-69H494.037L318.885,431.484z"/>
</g>
<g id="Layer_2">
	<g>
		<circle fill="#333333" cx="430.526" cy="359.941" r="52.096"/>
		<circle fill="#333333" cx="549.198" cy="355.046" r="52.096"/>
		<path display="none" fill="#333333" d="M524.499,361.528c0,6.919-3.731,12.528-8.334,12.528h-48.85
			c-4.603,0-8.334-5.609-8.334-12.528l0,0c0-6.919,3.731-12.528,8.334-12.528h48.85C520.768,349,524.499,354.609,524.499,361.528
			L524.499,361.528z"/>
	</g>
</g>
<g id="Layer_3">
	<g>
		<circle fill="#333333" cx="420.675" cy="465.107" r="40.276"/>
		<circle fill="#333333" cx="572.69" cy="447.767" r="40.276"/>
		<path fill="#333333" d="M429.785,425.869c0,0,51.859,12.341,64.069,10.405c21.634-3.431,58.038-23.004,58.038-23.004
			l31.651,73.286c0,0-47.929,16.708-81.608,20.549c-20.366,2.322-85.351-1.929-85.351-1.929L429.785,425.869z"/>
	</g>
</g>
</svg>
